<svg version="1.1" id="thermometerHotIcon" xmlns="http://www.w3.org/2000/svg" xmlns:xlink="http://www.w3.org/1999/xlink" x="0px" y="0px" width="70px" height="70px" viewBox="0 0 70 70" enable-background="new 0 0 70 70" xml:space="preserve">
<g id="sun_2_">
	<g id="outerRepeat" data-svg-origin="44.00000190734863 20.799999237060547" style="transform: matrix3d(0.842824, 0, 0, 0, 0, 0.842824, 0, 0, 0, 0, 1, 0, 6.91575, 3.26926, 0, 1); transform-origin: 0px 0px 0px;">
		<circle id="outer" fill="#FFE499" cx="44" cy="20.8" r="9.6" data-svg-origin="44.00000190734863 20.799999237060547" style="transform: matrix(1, 0, 0, 1, 0, 0);"></circle>
	</g>
	<g id="middleRepeat" data-svg-origin="43.999998569488525 20.799999713897705" style="transform-origin: 0px 0px 0px; transform: matrix3d(0.80212, 0, 0, 0, 0, 0.80212, 0, 0, 0, 0, 1, 0, 8.70672, 4.11591, 0, 1);">
		<circle id="middle" fill="#FFD766" cx="44" cy="20.8" r="7.4" data-svg-origin="43.999998569488525 20.799999713897705" style="transform: matrix(1, 0, 0, 1, 0, 0);"></circle>
	</g>
	<circle id="inner" fill="#FFBC00" cx="44" cy="20.8" r="5.5" data-svg-origin="44 20.799999237060547" style="transform: matrix(1, 0, 0, 1, 0, 0);"></circle>
</g>
<g id="thermometer" style="opacity: 1;">
	<circle fill="#E6E7E8" cx="27.9" cy="52.8" r="9.7"></circle>
	<path fill="#E6E7E8" d="M31.1,10.9c0-1.8-1.5-3.2-3.2-3.2l0,0c-1.8,0-3.2,1.5-3.2,3.2v33.4c0,1.8,1.5,3.2,3.2,3.2l0,0
		c1.8,0,3.2-1.5,3.2-3.2V10.9z"></path>
	<path fill="#FF703D" d="M30.1,44.4l0.7,0.2c3.4,1.2,5.7,4.5,5.7,8.1c0,4.8-3.9,8.6-8.6,8.6c-4.8,0-8.6-3.9-8.6-8.6
		c0-3.6,2.3-6.9,5.7-8.1l0.7-0.2L30.1,44.4z"></path>
	<rect id="mercury" x="25.7" y="13" fill="#FF703D" width="4.4" height="31.7" data-svg-origin="27.90000081062317 44.70000076293945" style="transform: matrix(1, 0, 0, 1, 0, 0);"></rect>
	<path opacity="0.3" fill="#FFFFFF" enable-background="new    " d="M32.1,44.7c1.4,1.6,2.3,3.7,2.3,6c0,5-4.1,9.1-9.1,9.1
		c-1.9,0-3.6-0.6-5-1.5c1.7,2.1,4.3,3.5,7.2,3.5c5.1,0,9.2-4.1,9.2-9.2C36.6,49.3,34.8,46.3,32.1,44.7z"></path>
	<rect x="24.6" y="13" fill="#58595B" width="2.2" height="0.5"></rect>
	<rect x="24.6" y="15.4" fill="#58595B" width="1.1" height="0.5"></rect>
	<rect x="24.6" y="17.7" fill="#58595B" width="1.1" height="0.5"></rect>
	<rect x="24.6" y="20.1" fill="#58595B" width="1.1" height="0.5"></rect>
	<rect x="24.6" y="22.5" fill="#58595B" width="2.2" height="0.5"></rect>
	<rect x="24.6" y="24.8" fill="#58595B" width="1.1" height="0.5"></rect>
	<rect x="24.6" y="27.2" fill="#58595B" width="1.1" height="0.5"></rect>
	<rect x="24.6" y="29.6" fill="#58595B" width="1.1" height="0.5"></rect>
	<rect x="24.6" y="31.9" fill="#58595B" width="2.2" height="0.5"></rect>
	<rect x="24.6" y="34.3" fill="#58595B" width="1.1" height="0.5"></rect>
	<rect x="24.6" y="36.7" fill="#58595B" width="1.1" height="0.5"></rect>
	<rect x="24.6" y="39" fill="#58595B" width="1.1" height="0.5"></rect>
	<rect x="24.6" y="41.4" fill="#58595B" width="2.2" height="0.5"></rect>
	<circle fill="#FFFFFF" cx="24.5" cy="50" r="2.1"></circle>
	<path opacity="0.4" fill="#F1F2F2" enable-background="new    " d="M30.6,42c0,0.6-0.5,1.1-1.1,1.1l0,0c-0.6,0-1.1-0.5-1.1-1.1
		V12.1c0-0.6,0.5-1.1,1.1-1.1l0,0c0.6,0,1.1,0.5,1.1,1.1V42z"></path>
	<g id="c">
		<path fill="#FFFFFF" d="M21.8,17.8c-0.2,0.1-0.5,0.2-0.9,0.2c-0.9,0-1.6-0.6-1.6-1.7c0-1,0.7-1.7,1.7-1.7c0.4,0,0.7,0.1,0.8,0.1
			L21.7,15c-0.2,0-0.4,0-0.7,0c-0.8,0-1.3,0.5-1.3,1.4c0,0.8,0.5,1.3,1.3,1.3c0.3,0,0.5-0.1,0.7-0.1L21.8,17.8z"></path>
		<path fill="#FFFFFF" d="M18.2,14.7c-0.3,0-0.6,0.3-0.6,0.6s0.3,0.6,0.6,0.6c0.3,0,0.6-0.3,0.6-0.6C18.8,14.9,18.5,14.7,18.2,14.7z
			 M18.2,15.6c-0.2,0-0.3-0.2-0.3-0.3c0-0.2,0.2-0.3,0.3-0.3c0.2,0,0.3,0.2,0.3,0.3C18.6,15.5,18.4,15.6,18.2,15.6z"></path>
	</g>
</g>
<desc>Created with Snap</desc><defs></defs></svg>