<svg version="1.1" id="snowyIcon" xmlns="http://www.w3.org/2000/svg" xmlns:xlink="http://www.w3.org/1999/xlink" x="0px" y="0px" width="70px" height="70px" viewBox="0 0 70 70" enable-background="new 0 0 70 70" xml:space="preserve">
<g id="rain" style="opacity: 1;">
	<path fill="#FFFFFF" d="M27.5,43.2l0.2-0.2l-0.4-0.3l0.4-0.2l-0.1-0.2l-0.4,0.2l0-0.5l-0.3,0l0,0.6l-0.2,0.1l0-0.7l-0.3,0l0,0.8
		l-0.8,0.4l0.1-0.5l-0.5,0l0.3-0.4l0.8-0.1v-0.3l-0.6,0l0.2-0.3l-0.2-0.2L25.4,42l-0.2-0.6l-0.3,0.1l0.2,0.8l-0.3,0.4l-0.1-0.5
		l-0.4,0.3l0-0.9l0.7-0.4L25,41l-0.6,0.3V41l0.5-0.3l-0.1-0.3l-0.4,0.2l0-0.5h-0.3l0,0.5l-0.4-0.3l-0.1,0.3L24,41v0.3l-0.5-0.4
		l-0.1,0.3l0.7,0.4l0,0.9l-0.4-0.3l-0.2,0.4l-0.2-0.4l0.4-0.8l-0.3-0.2l-0.3,0.6l-0.2-0.3l-0.2,0.2l0.1,0.3l-0.6-0.1v0.3l0.8,0.2
		l0.2,0.4l-0.5-0.2l0,0.5l-0.7-0.5l0-0.8l-0.3-0.1l0,0.7l-0.2-0.1l0-0.6l-0.3-0.1l0,0.5l-0.4-0.3l-0.2,0.3l0.4,0.3l-0.4,0.2l0.2,0.3
		l0.5-0.3l0.2,0.1L20.7,43l0.2,0.2l0.7-0.4l0.8,0.5l-0.5,0.1l0.3,0.4l-0.4,0l-0.5-0.7l-0.3,0.1l0.4,0.5l-0.4,0v0.3h0.4L21,44.6
		l0.3,0.2l0.6-0.6l0.4,0l-0.4,0.4l0.5,0.2l-0.8,0.4l-0.7-0.4L20.7,45l0.6,0.4l-0.2,0.1l-0.5-0.4l-0.2,0.2l0.4,0.3l-0.4,0.2l0.1,0.3
		l0.4-0.2l0,0.5l0.3,0l0-0.6l0.2-0.1l0,0.7l0.3,0l0-0.8l0.8-0.4l-0.1,0.5l0.5,0l-0.3,0.4L21.9,46v0.3l0.6,0l-0.2,0.3l0.3,0.2
		l0.2-0.3l0.2,0.6l0.3-0.1L23,46.2l0.3-0.4l0.1,0.5l0.4-0.3l0,0.9L23,47.2l0.1,0.3l0.6-0.3v0.3l-0.5,0.3l0.1,0.3l0.4-0.2l0,0.5H24
		l0-0.5l0.4,0.3l0.1-0.3l-0.6-0.4v-0.3l0.6,0.4l0.1-0.3L24,46.9l0-0.9l0.4,0.4l0.2-0.5l0.2,0.4L24.5,47l0.3,0.2l0.3-0.6l0.2,0.3
		l0.3-0.1l-0.1-0.3l0.6,0.1l0-0.3l-0.8-0.2l-0.2-0.4l0.3,0l0,0l0.3,0l0-0.5l0.8,0.5l-0.1,0.8l0.3,0.1l0-0.7l0.2,0.1l0,0.6l0.3,0.1
		l0-0.5l0.4,0.3l0.2-0.3l-0.4-0.3l0.4-0.2l-0.2-0.2l-0.5,0.3l-0.2-0.1l0.6-0.3l-0.2-0.2l-0.7,0.4l-0.8-0.5l0.5-0.1l-0.3-0.4l0.4,0
		l0.5,0.7l0.3-0.1l-0.4-0.5l0.4,0v-0.3h-0.4l0.4-0.4l-0.3-0.2l-0.6,0.6l-0.4,0l0.4-0.4l-0.5-0.2l0.8-0.4l0.7,0.4l0.2-0.2l-0.5-0.4
		l0.2-0.1L27.5,43.2z M24.9,43.2l0.4,0l-0.1,0.4l-0.7,0.4L24.9,43.2z M24.7,45.3l-0.3-0.7l0.7,0.4l0,0.4L24.7,45.3L24.7,45.3z
		 M24.3,42.9l0.3-0.2l0.1,0.4l-0.4,0.7L24.3,42.9z M23.7,42.7l0.3,0.2l0,0.8L23.6,43L23.7,42.7z M23.3,43.1l0.4,0.7l-0.5-0.3
		l-0.1-0.1L23,43.4l0-0.4L23.3,43.1z M22.8,43.6l0.7,0.4l0,0l-0.8,0l-0.2-0.3L22.8,43.6z M22.4,44.5l0.3-0.3l0.8,0l-0.7,0.4
		L22.4,44.5z M23.2,45.3h-0.4l0.1-0.4l0.7-0.4L23.2,45.3z M23.8,45.5l-0.3,0.2l-0.1-0.4l0.4-0.7L23.8,45.5z M24.3,45.8l-0.3-0.2
		l0-0.8l0.4,0.7L24.3,45.8z M25.2,44.8l-0.7-0.4l0.8,0l0.2,0.3L25.2,44.8z M25.4,44.2l-0.8,0l0.7-0.4l0.3,0.1L25.4,44.2z" data-svg-origin="20.399999618530273 40.10000228881836" style="opacity: 0.1485; transform: matrix3d(0.902247, 0.43122, 0, 0, -0.43122, 0.902247, 0, 0, 0, 0, 1, 0, 19.2861, 7.89552, 0, 1);"></path>
	<path fill="#FFFFFF" d="M59.3,31.7l0.2-0.2l-0.4-0.3l0.5-0.2l-0.1-0.2L59,31l0-0.5l-0.3,0l0,0.6l-0.2,0.1l0-0.7l-0.3,0l0,0.9
		l-0.9,0.4l0.1-0.5l-0.6,0l0.3-0.4l0.9-0.1v-0.3l-0.7,0l0.2-0.3l-0.2-0.2L57,30.4l-0.2-0.6L56.5,30l0.2,0.9l-0.3,0.4l-0.1-0.5
		L55.9,31l0-1l0.8-0.4l-0.1-0.3L56,29.6v-0.3l0.6-0.3l-0.1-0.3L56,29l0-0.5h-0.3l0,0.5l-0.4-0.3L55.1,29l0.5,0.3v0.3L55,29.2
		l-0.1,0.3l0.7,0.5l0,1l-0.4-0.3l-0.2,0.5l-0.2-0.4l0.4-0.8l-0.3-0.2l-0.3,0.6l-0.2-0.3l-0.2,0.2l0.1,0.3l-0.7-0.1v0.3l0.9,0.2
		l0.2,0.4l-0.5-0.2l0,0.5l-0.8-0.5l0-0.9l-0.3-0.1l0,0.7l-0.2-0.1l0-0.6L52.5,30l0,0.5L52,30.2l-0.2,0.3l0.4,0.3L51.8,31l0.2,0.3
		l0.6-0.3l0.2,0.1l-0.7,0.3l0.2,0.2l0.8-0.4l0.9,0.6l-0.5,0.1l0.3,0.5l-0.5,0l-0.5-0.7l-0.3,0.1l0.4,0.5l-0.4,0v0.3h0.4l-0.5,0.5
		l0.3,0.2l0.6-0.6l0.5,0l-0.4,0.4l0.5,0.2L53,33.9l-0.7-0.5L52,33.7l0.6,0.4l-0.2,0.1l-0.5-0.4L51.7,34l0.4,0.3l-0.5,0.2l0.1,0.3
		l0.5-0.2l0,0.5l0.3,0l0-0.6l0.2-0.1l0,0.7l0.3,0l0-0.9l0.9-0.4l-0.1,0.6l0.6,0l-0.3,0.4l-0.9,0.1V35l0.7,0l-0.2,0.3l0.3,0.2
		l0.2-0.3l0.2,0.7l0.3-0.1l-0.2-0.9l0.3-0.4l0.1,0.6l0.5-0.3l0,1L54.5,36l0.1,0.3l0.7-0.3v0.3l-0.6,0.3l0.1,0.3l0.5-0.2l0,0.5h0.3
		l0-0.5l0.4,0.3l0.1-0.3l-0.7-0.4V36l0.6,0.4l0.1-0.3l-0.7-0.5l0-1L56,35l0.2-0.5l0.2,0.4l-0.3,0.8l0.3,0.2l0.3-0.6l0.2,0.3l0.3-0.1
		L57,35.2l0.6,0.1l0-0.3l-0.9-0.2l-0.2-0.4l0.3,0l0,0l0.3,0.1l0-0.6l0.9,0.6l-0.1,0.9l0.3,0.1l0-0.7l0.2,0.1l0,0.6l0.3,0.1l0-0.5
		l0.5,0.3l0.2-0.3l-0.5-0.3l0.5-0.2l-0.2-0.2l-0.6,0.3l-0.2-0.1l0.7-0.3l-0.2-0.2l-0.8,0.4l-0.9-0.6l0.5-0.1l-0.3-0.5l0.5,0l0.5,0.7
		l0.3-0.1l-0.4-0.6l0.4,0v-0.3h-0.4l0.5-0.5l-0.3-0.2l-0.6,0.6l-0.5,0l0.4-0.4l-0.5-0.2l0.9-0.4l0.7,0.5l0.2-0.2l-0.6-0.4l0.2-0.1
		L59.3,31.7z M56.5,31.7l0.4,0L56.8,32l-0.8,0.4L56.5,31.7z M56.3,34L56,33.2l0.7,0.5l0,0.4L56.3,34L56.3,34z M55.8,31.3l0.3-0.2
		l0.1,0.4l-0.4,0.7L55.8,31.3z M55.3,31.1l0.3,0.2l0,0.9l-0.4-0.8L55.3,31.1z M54.8,31.6l0.4,0.8L54.7,32L54.6,32l-0.1-0.1l0-0.4
		L54.8,31.6z M54.3,32.1l0.7,0.5l0,0l-0.8,0l-0.2-0.3L54.3,32.1z M53.9,33.1l0.3-0.3l0.9,0l-0.8,0.4L53.9,33.1z M54.7,33.9h-0.4
		l0.1-0.4l0.8-0.4L54.7,33.9z M55.4,34.2l-0.3,0.2L55,34l0.5-0.7L55.4,34.2z M55.9,34.5l-0.3-0.2l0-0.9l0.4,0.8L55.9,34.5z
		 M56.9,33.4L56.2,33l0.9,0l0.2,0.3L56.9,33.4z M57,32.7l-0.9,0l0.8-0.4l0.3,0.1L57,32.7z" data-svg-origin="51.60000228881836 28.5" style="opacity: 0.271364; transform: matrix3d(0.722748, 0.691112, 0, 0, -0.691112, 0.722748, 0, 0, 0, 0, 1, 0, 34.0029, -16.8301, 0, 1);"></path>
	<path fill="#FFFFFF" d="M37.3,44l0.2-0.2l-0.3-0.2l0.4-0.2l-0.1-0.2l-0.4,0.2l0-0.4l-0.3,0l0,0.5l-0.2,0.1l0-0.6l-0.3,0l0,0.7
		l-0.7,0.3l0.1-0.4l-0.5,0l0.2-0.3l0.7-0.1V43l-0.5,0l0.2-0.3l-0.2-0.2l-0.2,0.3l-0.2-0.5l-0.2,0.1l0.2,0.7L35,43.5l-0.1-0.4
		l-0.3,0.3l0-0.8l0.6-0.3L35.2,42l-0.5,0.3v-0.2l0.5-0.2L35,41.6l-0.4,0.2l0-0.4h-0.3l0,0.4L34,41.6l-0.1,0.2l0.4,0.3v0.2l-0.5-0.4
		l-0.1,0.2l0.6,0.4l0,0.8L34,43l-0.2,0.4l-0.2-0.3l0.3-0.6l-0.2-0.2l-0.2,0.5l-0.2-0.3l-0.2,0.2l0.1,0.3l-0.5-0.1v0.3l0.7,0.2
		l0.2,0.3l-0.4-0.2l0,0.4l-0.6-0.4l0-0.7l-0.2-0.1l0,0.6l-0.2-0.1l0-0.5l-0.3-0.1l0,0.4l-0.4-0.2L31.3,43l0.3,0.2l-0.4,0.2l0.2,0.2
		l0.5-0.2l0.2,0.1l-0.5,0.3l0.2,0.2l0.6-0.3l0.7,0.5l-0.4,0.1l0.3,0.4l-0.4,0L32,44l-0.2,0.1l0.3,0.4l-0.3,0v0.3h0.3l-0.4,0.4
		l0.2,0.2l0.5-0.5l0.4,0l-0.3,0.3l0.4,0.2l-0.7,0.3l-0.6-0.4l-0.2,0.2l0.5,0.3L31.8,46l-0.4-0.3l-0.2,0.2l0.3,0.2l-0.4,0.2l0.1,0.2
		l0.4-0.2l0,0.4l0.3,0l0-0.5l0.2-0.1l0,0.6l0.3,0l0-0.7l0.7-0.3L33,46l0.5,0l-0.2,0.3l-0.7,0.1v0.3l0.5,0l-0.2,0.3l0.2,0.2l0.2-0.3
		l0.2,0.5l0.2-0.1l-0.2-0.7l0.2-0.3l0.1,0.5l0.4-0.3l0,0.8l-0.7,0.2l0.1,0.3l0.5-0.3v0.2l-0.5,0.2l0.1,0.3l0.4-0.2l0,0.4h0.3l0-0.4
		l0.3,0.2l0.1-0.2l-0.5-0.3v-0.2l0.5,0.3l0.1-0.2l-0.6-0.4l0-0.8l0.3,0.3l0.2-0.4l0.2,0.3l-0.3,0.6l0.2,0.2l0.2-0.5l0.2,0.3l0.2-0.1
		l-0.1-0.3l0.5,0.1l0-0.3l-0.7-0.2l-0.2-0.3l0.2,0l0,0l0.3,0l0-0.5l0.7,0.5l-0.1,0.7l0.2,0.1l0-0.6l0.2,0.1l0,0.5l0.3,0.1l0-0.4
		l0.4,0.2l0.2-0.2L37,46.4l0.4-0.2l-0.2-0.2l-0.5,0.2l-0.2-0.1l0.5-0.3L37,45.7L36.3,46l-0.7-0.5l0.4-0.1l-0.3-0.4l0.4,0l0.4,0.6
		l0.2-0.1l-0.3-0.5l0.3,0v-0.3h-0.3l0.4-0.4l-0.2-0.2l-0.5,0.5l-0.4,0l0.3-0.3l-0.4-0.2l0.7-0.3l0.6,0.4l0.2-0.2l-0.5-0.3l0.2-0.1
		L37.3,44z M35.1,43.9l0.3,0l-0.1,0.3l-0.6,0.3L35.1,43.9z M34.9,45.7l-0.2-0.6l0.6,0.4l0,0.3L34.9,45.7L34.9,45.7z M34.5,43.7
		l0.2-0.2l0.1,0.3l-0.3,0.6L34.5,43.7z M34.1,43.5l0.2,0.2l0,0.7l-0.3-0.6L34.1,43.5z M33.7,43.8l0.3,0.6l-0.4-0.2l-0.1-0.1
		l-0.1-0.1l0-0.3L33.7,43.8z M33.3,44.3l0.6,0.4l0,0l-0.7,0L33,44.3L33.3,44.3z M33,45.1l0.2-0.2l0.7,0l-0.6,0.3L33,45.1z
		 M33.6,45.7h-0.3l0.1-0.3l0.6-0.3L33.6,45.7z M34.1,45.9l-0.2,0.2l-0.1-0.3l0.4-0.6L34.1,45.9z M34.6,46.2L34.4,46l0-0.7l0.3,0.6
		L34.6,46.2z M35.4,45.3l-0.6-0.4l0.7,0l0.2,0.2L35.4,45.3z M35.5,44.8l-0.7,0l0.6-0.3l0.3,0.1L35.5,44.8z" data-svg-origin="31.099998474121094 41.39999771118164" style="opacity: 0.62375; transform: matrix3d(0.830377, 0.557202, 0, 0, -0.557202, 0.830377, 0, 0, 0, 0, 1, 0, 28.3434, -4.66284, 0, 1);"></path>
	<path fill="#FFFFFF" d="M43.5,45.6l0.1-0.1l-0.2-0.1l0.2-0.1l0-0.1l-0.2,0.1l0-0.3l-0.2,0l0,0.3L43,45.4l0-0.4l-0.2,0l0,0.4
		l-0.4,0.2l0.1-0.3l-0.3,0l0.1-0.2l0.4,0v-0.2l-0.3,0l0.1-0.2l-0.1-0.1L42.3,45l-0.1-0.3l-0.1,0.1l0.1,0.4l-0.1,0.2L42,45.1
		l-0.2,0.2l0-0.5l0.4-0.2l0-0.2l-0.3,0.2v-0.1l0.3-0.1l0-0.1l-0.2,0.1l0-0.3h-0.2l0,0.3l-0.2-0.1l-0.1,0.1l0.3,0.2v0.1l-0.3-0.2
		l-0.1,0.1l0.4,0.2l0,0.5l-0.2-0.2l-0.1,0.2l-0.1-0.2l0.2-0.4l-0.1-0.1l-0.1,0.3L41,44.7l-0.1,0.1L41,45l-0.3-0.1v0.2l0.4,0.1
		l0.1,0.2l-0.3-0.1l0,0.3l-0.4-0.3l0-0.4l-0.1,0l0,0.4l-0.1-0.1l0-0.3l-0.2,0l0,0.3l-0.2-0.1L39.7,45l0.2,0.1l-0.2,0.1l0.1,0.1
		l0.3-0.1l0.1,0.1l-0.3,0.2l0.1,0.1l0.4-0.2l0.4,0.3l-0.3,0.1l0.2,0.2l-0.2,0l-0.3-0.4l-0.1,0.1l0.2,0.3l-0.2,0v0.2h0.2L40,46.4
		l0.1,0.1l0.3-0.3l0.2,0l-0.2,0.2l0.3,0.1l-0.4,0.2L40,46.5l-0.1,0.1l0.3,0.2l-0.1,0.1l-0.3-0.2l-0.1,0.1l0.2,0.1L39.7,47l0.1,0.1
		l0.2-0.1l0,0.3l0.2,0l0-0.3l0.1-0.1l0,0.4l0.2,0l0-0.4l0.4-0.2l-0.1,0.3l0.3,0l-0.1,0.2l-0.4,0v0.2l0.3,0l-0.1,0.2l0.1,0.1l0.1-0.2
		l0.1,0.3l0.1-0.1l-0.1-0.4l0.1-0.2l0.1,0.3l0.2-0.2l0,0.5l-0.4,0.1l0,0.2l0.3-0.2v0.1L41.2,48l0,0.2l0.2-0.1l0,0.3h0.2l0-0.3
		l0.2,0.1l0.1-0.1l-0.3-0.2v-0.1l0.3,0.2l0.1-0.1l-0.4-0.2l0-0.5l0.2,0.2l0.1-0.3l0.1,0.2l-0.2,0.4l0.1,0.1l0.1-0.3l0.1,0.2l0.1-0.1
		l-0.1-0.2l0.3,0.1l0-0.2l-0.4-0.1L42.1,47l0.1,0l0,0l0.2,0l0-0.3l0.4,0.3l-0.1,0.4l0.1,0l0-0.4l0.1,0.1l0,0.3l0.2,0l0-0.3l0.2,0.1
		l0.1-0.1l-0.2-0.1l0.2-0.1l-0.1-0.1l-0.3,0.1L43,47l0.3-0.2l-0.1-0.1l-0.4,0.2l-0.4-0.3l0.3-0.1l-0.2-0.2l0.2,0l0.3,0.4l0.1-0.1
		L43,46.3l0.2,0v-0.2H43l0.2-0.2l-0.1-0.1l-0.3,0.3l-0.2,0l0.2-0.2l-0.3-0.1l0.4-0.2l0.4,0.2l0.1-0.1l-0.3-0.2l0.1-0.1L43.5,45.6z
		 M42.1,45.6l0.2,0l0,0.2L41.9,46L42.1,45.6z M42,46.7l-0.2-0.4l0.4,0.2l0,0.2L42,46.7L42,46.7z M41.7,45.4l0.1-0.1l0,0.2l-0.2,0.4
		L41.7,45.4z M41.5,45.3l0.1,0.1l0,0.4l-0.2-0.4L41.5,45.3z M41.2,45.6l0.2,0.4l-0.3-0.1l0,0l-0.1,0l0-0.2L41.2,45.6z M41,45.8
		l0.3,0.2l0,0l-0.4,0l-0.1-0.2L41,45.8z M40.8,46.3l0.1-0.1l0.4,0L41,46.4L40.8,46.3z M41.2,46.7H41l0-0.2l0.4-0.2L41.2,46.7z
		 M41.5,46.9L41.4,47l0-0.2l0.2-0.4L41.5,46.9z M41.8,47l-0.1-0.1l0-0.4l0.2,0.4L41.8,47z M42.3,46.5l-0.4-0.2l0.4,0l0.1,0.1
		L42.3,46.5z M42.3,46.1l-0.4,0l0.4-0.2l0.2,0.1L42.3,46.1z" data-svg-origin="39.70000076293945 44.10000228881836" style="opacity: 0.575769; transform: matrix3d(0.630572, 0.776131, 0, 0, -0.776131, 0.630572, 0, 0, 0, 0, 1, 0, 48.8937, -8.15715, 0, 1);"></path>
	<path fill="#FFFFFF" d="M50.4,40.4l0.1-0.1l-0.2-0.1l0.2-0.1l0-0.1l-0.2,0.1l0-0.3l-0.2,0l0,0.3L50,40.2l0-0.4l-0.2,0l0,0.4
		l-0.4,0.2l0.1-0.3l-0.3,0l0.1-0.2l0.4,0v-0.2l-0.3,0l0.1-0.2l-0.1-0.1l-0.1,0.2l-0.1-0.3L49,39.6l0.1,0.4L49,40.2l-0.1-0.3
		l-0.2,0.2l0-0.5l0.4-0.2l0-0.2l-0.3,0.2v-0.1l0.3-0.1l0-0.1l-0.2,0.1l0-0.3h-0.2l0,0.3L48.4,39l-0.1,0.1l0.3,0.2v0.1l-0.3-0.2
		l-0.1,0.1l0.4,0.2l0,0.5l-0.2-0.2l-0.1,0.2l-0.1-0.2l0.2-0.4l-0.1-0.1l-0.1,0.3L48,39.6l-0.1,0.1l0.1,0.2l-0.3-0.1v0.2L48,40
		l0.1,0.2l-0.3-0.1l0,0.3l-0.4-0.3l0-0.4l-0.1,0l0,0.4l-0.1-0.1l0-0.3l-0.2,0l0,0.3l-0.2-0.1l-0.1,0.1l0.2,0.1l-0.2,0.1l0.1,0.1
		l0.3-0.1l0.1,0.1l-0.3,0.2l0.1,0.1l0.4-0.2l0.4,0.3l-0.3,0.1l0.2,0.2l-0.2,0l-0.3-0.4L47,40.5l0.2,0.3l-0.2,0v0.2h0.2L47,41.2
		l0.1,0.1l0.3-0.3l0.2,0l-0.2,0.2l0.3,0.1l-0.4,0.2l-0.4-0.2l-0.1,0.1l0.3,0.2L47,41.7l-0.3-0.2l-0.1,0.1l0.2,0.1l-0.2,0.1l0.1,0.1
		l0.2-0.1l0,0.3l0.2,0l0-0.3l0.1-0.1l0,0.4l0.2,0l0-0.4l0.4-0.2l-0.1,0.3l0.3,0l-0.1,0.2l-0.4,0v0.2l0.3,0l-0.1,0.2l0.1,0.1l0.1-0.2
		l0.1,0.3l0.1-0.1L48,42l0.1-0.2l0.1,0.3l0.2-0.2l0,0.5L48,42.6l0,0.2l0.3-0.2v0.1l-0.3,0.1l0,0.2l0.2-0.1l0,0.3h0.2l0-0.3l0.2,0.1
		l0.1-0.1l-0.3-0.2v-0.1l0.3,0.2l0.1-0.1l-0.4-0.2l0-0.5l0.2,0.2l0.1-0.3L49,42l-0.2,0.4l0.1,0.1l0.1-0.3l0.1,0.2l0.1-0.1l-0.1-0.2
		l0.3,0.1l0-0.2L49.2,42L49,41.8l0.1,0l0,0l0.2,0l0-0.3l0.4,0.3l-0.1,0.4l0.1,0l0-0.4L50,42l0,0.3l0.2,0l0-0.3l0.2,0.1l0.1-0.1
		L50.2,42l0.2-0.1l-0.1-0.1l-0.3,0.1L50,41.8l0.3-0.2l-0.1-0.1l-0.4,0.2l-0.4-0.3l0.3-0.1l-0.2-0.2l0.2,0l0.3,0.4l0.1-0.1l-0.2-0.3
		l0.2,0V41h-0.2l0.2-0.2L50,40.7L49.7,41l-0.2,0l0.2-0.2l-0.3-0.1l0.4-0.2l0.4,0.2l0.1-0.1L50,40.4l0.1-0.1L50.4,40.4z M49,40.4
		l0.2,0l0,0.2l-0.4,0.2L49,40.4z M48.9,41.6l-0.2-0.4l0.4,0.2l0,0.2L48.9,41.6L48.9,41.6z M48.7,40.3l0.1-0.1l0,0.2l-0.2,0.4
		L48.7,40.3z M48.4,40.1l0.1,0.1l0,0.4l-0.2-0.4L48.4,40.1z M48.2,40.4l0.2,0.4l-0.3-0.1l0,0l-0.1,0l0-0.2L48.2,40.4z M47.9,40.6
		l0.3,0.2l0,0l-0.4,0l-0.1-0.2L47.9,40.6z M47.7,41.1l0.1-0.1l0.4,0l-0.4,0.2L47.7,41.1z M48.1,41.5h-0.2l0-0.2l0.4-0.2L48.1,41.5z
		 M48.5,41.7l-0.1,0.1l0-0.2l0.2-0.4L48.5,41.7z M48.7,41.8l-0.1-0.1l0-0.4l0.2,0.4L48.7,41.8z M49.2,41.3l-0.4-0.2l0.4,0l0.1,0.1
		L49.2,41.3z M49.3,40.9l-0.4,0l0.4-0.2l0.2,0.1L49.3,40.9z" data-svg-origin="46.60000228881836 38.90000534057617" style="opacity: 0.4275; transform: matrix3d(0.0719327, 0.997409, 0, 0, -0.997409, 0.0719327, 0, 0, 0, 0, 1, 0, 82.0472, -1.78996, 0, 1);"></path>
	<path fill="#FFFFFF" d="M17.8,47c0,0.8-0.7,1.5-1.5,1.5s-1.5-0.7-1.5-1.5s0.7-1.5,1.5-1.5C17.3,45.4,17.8,46.1,17.8,47z" data-svg-origin="14.799999237060547 45.490474700927734" style="opacity: 0.399; transform: matrix3d(-0.312003, 0.950081, 0, 0, -0.950081, -0.312003, 0, 0, 0, 0, 1, 0, 62.6373, 54.6375, 0, 1);"></path>
	<path fill="#FFFFFF" d="M28.9,47c0,0.8-0.7,1.5-1.5,1.5s-1.5-0.7-1.5-1.5s0.7-1.5,1.5-1.5C28.4,45.4,28.9,46.1,28.9,47z" data-svg-origin="25.899999618530273 45.490474700927734" style="opacity: 0.655312; transform: matrix3d(0.30263, 0.953108, 0, 0, -0.953108, 0.30263, 0, 0, 0, 0, 1, 0, 61.4192, 12.2085, 0, 1);"></path>
	<path fill="#FFFFFF" d="M40.8,47.1c0,0.7-0.6,1.3-1.3,1.3s-1.3-0.6-1.3-1.3c0-0.7,0.5-1.4,1.3-1.3C40.2,45.8,40.8,46.3,40.8,47.1z" data-svg-origin="38.20000076293945 45.79042053222656" style="opacity: 0.293235; transform: matrix3d(-0.983646, 0.180115, 0, 0, -0.180115, -0.983646, 0, 0, 0, 0, 1, 0, 84.0228, 94.553, 0, 1);"></path>
	<path fill="#FFFFFF" d="M52.7,36.1c0,0.7-0.6,1.3-1.3,1.3S50,36.8,50,36.1c0-0.7,0.5-1.4,1.3-1.3C52.1,34.8,52.7,35.3,52.7,36.1z" data-svg-origin="50 34.79042053222656" style="opacity: 0.443611; transform: matrix3d(-0.867982, 0.496595, 0, 0, -0.496595, -0.867982, 0, 0, 0, 0, 1, 0, 110.676, 48.504, 0, 1);"></path>
	<path fill="#FFFFFF" d="M61.1,34.7c0,0.7-0.6,1.3-1.3,1.3c-0.7,0-1.3-0.6-1.3-1.3c0-0.7,0.5-1.4,1.3-1.3
		C60.5,33.4,61.1,34,61.1,34.7z" data-svg-origin="58.5 33.39042282104492" style="opacity: 0.157105; transform: matrix3d(-0.294567, -0.955631, 0, 0, 0.955631, -0.294567, 0, 0, 0, 0, 1, 0, 43.8233, 111.774, 0, 1);"></path>
</g>
<g id="cloud1" style="opacity: 1;">
	<circle fill="#A7A9AC" cx="55.6" cy="29" r="8.4"></circle>
	<circle fill="#E6E7E8" cx="38.2" cy="26.8" r="6.7"></circle>
	<path fill="#A7A9AC" d="M28.8,33.5c0,2.2,1.8,3.9,3.9,3.9h23.6c2.2,0,3.9-1.8,3.9-3.9l0,0c0-2.2-17-8.5-19.2-8.5c0,0-0.7,6.3-5.1,1
		C34.4,24.1,28.8,31.3,28.8,33.5L28.8,33.5z"></path>
	<circle fill="#A7A9AC" cx="31.7" cy="30.9" r="6.5"></circle>
	<path fill="#E6E7E8" d="M25.2,30.4c0.3-3.1,2.8-5.6,5.9-5.9c2.7,0.3,4.8,2.6,4.8,5.4c0,3-2.4,5.4-5.4,5.4
		C27.8,35.2,25.5,33.1,25.2,30.4z"></path>
	<path fill="#E6E7E8" d="M56.5,20.6c3.9,0.4,7.1,3.5,7.5,7.5c-0.4,3.4-3.2,6-6.7,6c-3.7,0-6.7-3-6.7-6.7
		C50.5,23.9,53.2,21,56.5,20.6z"></path>
	<circle fill="#A7A9AC" cx="47" cy="21.4" r="9"></circle>
	<path fill="#E6E7E8" d="M39.2,19.1c0-1,0.2-1.9,0.4-2.8c1.6-2.3,4.3-3.9,7.4-3.9c4.9,0,9,4,9,9c0,0.8-0.1,1.6-0.3,2.4
		C54,26.3,51.2,28,48.1,28C43.1,28,39.2,24,39.2,19.1z"></path>
</g>
<g id="cloud0" style="opacity: 1;">
	<circle fill="#D1D3D4" cx="15.8" cy="38.8" r="9.7"></circle>
	<circle fill="#FFFFFF" cx="35.8" cy="36.2" r="7.8"></circle>
	<path fill="#D1D3D4" d="M46.6,44c0,2.5-2,4.5-4.5,4.5H15c-2.5,0-4.5-2-4.5-4.5l0,0c0-2.5,19.6-9.8,22.1-9.8c0,0,0.8,7.2,5.9,1.2
		C40.3,33.2,46.6,41.5,46.6,44L46.6,44z"></path>
	<circle fill="#D1D3D4" cx="43.3" cy="41" r="7.5"></circle>
	<path fill="#FFFFFF" d="M50.8,40.3c-0.3-3.6-3.2-6.5-6.8-6.8c-3.1,0.3-5.6,3-5.6,6.2c0,3.4,2.8,6.2,6.2,6.2
		C47.8,45.9,50.5,43.5,50.8,40.3z"></path>
	<path fill="#FFFFFF" d="M14.8,29.1c-4.5,0.5-8.1,4.1-8.6,8.6c0.4,3.9,3.7,6.9,7.7,6.9c4.3,0,7.8-3.5,7.8-7.8
		C21.6,32.9,18.6,29.6,14.8,29.1z"></path>
	<circle fill="#D1D3D4" cx="25.8" cy="30" r="10.3"></circle>
	<path fill="#FFFFFF" d="M34.8,27.3c0-1.1-0.2-2.2-0.5-3.2c-1.9-2.7-5-4.5-8.5-4.5c-5.7,0-10.3,4.6-10.3,10.3c0,0.9,0.1,1.9,0.4,2.7
		c1.8,2.9,5,4.8,8.7,4.8C30.2,37.6,34.8,33,34.8,27.3z"></path>
</g>
<desc>Created with Snap</desc><defs></defs></svg>